# xmcd
#
# Track frame offsets:
#	150
#	17704
#	33593
#	50030
#	66458
#	86671
#	103516
#	118818
#	135180
#	154214
#
# Disc length: 2287 seconds
#
# Revision: 0
# Processed by: cddbd v1.5.2PL0 Copyright (c) Steve Scherf et al.
# Submitted via: EasyCDDAExtractor 12.1.0.1
#
DISCID=8708ed0a
DTITLE=Sunshine Anderson - The Sun Shines Again
DYEAR=2010
DGENRE=Soul
TTITLE0=Say Something
TTITLE1=Hard Love
TTITLE2=2nd Fiddle
TTITLE3=Lie To Kick It
TTITLE4=Life Back
TTITLE5=Karma's A Mutha
TTITLE6=A Warning For The Heart
TTITLE7=Call My Own
TTITLE8=Nervous
TTITLE9=U Doin' It
EXTD=
EXTT0=
EXTT1=
EXTT2=
EXTT3=
EXTT4=
EXTT5=
EXTT6=
EXTT7=
EXTT8=
EXTT9=
PLAYORDER=
